Input #0, mov,mp4,m4a,3gp,3g2,mj2, from '/home/hbattu/projects/huberman-gpt/huberman-audio/mp3/tmp0sidlj08.mp4':
  Metadata:
    major_brand     : dash
    minor_version   : 0
    compatible_brands: iso6mp41
    creation_time   : 2022-08-29T23:13:05.000000Z
  Duration: 02:50:02.11, start: 0.000000, bitrate: 129 kb/s
    Stream #0:0(eng): Audio: aac (LC) (mp4a / 0x6134706D), 44100 Hz, stereo, fltp, 0 kb/s (default)
    Metadata:
      creation_time   : 2022-08-29T23:13:05.000000Z
      handler_name    : ISO Media file produced by Google Inc.
Stream mapping:
  Stream #0:0 -> #0:0 (aac (native) -> mp3 (libmp3lame))
Press [q] to stop, [?] for help
[graph_0_in_0_0 @ 0x56231654e440] tb:1/44100 samplefmt:fltp samplerate:44100 chlayout:0x3
Output #0, mp3, to '../huberman-audio/mp3/DTCmprPCDqc.mp3':
  Metadata:
    major_brand     : dash
    minor_version   : 0
    compatible_brands: iso6mp41
    TSSE            : Lavf58.29.100
    Stream #0:0(eng): Audio: mp3 (libmp3lame), 44100 Hz, stereo, fltp, delay 1105 (default)
    Metadata:
      creation_time   : 2022-08-29T23:13:05.000000Z
      handler_name    : ISO Media file produced by Google Inc.
      encoder         : Lavc58.54.100 libmp3lame
No more output streams to write to, finishing.
size=  159409kB time=02:50:02.12 bitrate= 128.0kbits/s speed=94.2x    
[AVIOContext @ 0x562316437900] Statistics: 0 seeks, 217 writeouts
video:0kB audio:159409kB subtitle:0kB other streams:0kB global headers:0kB muxing overhead: 0.000212%
Input file #0 (/home/hbattu/projects/huberman-gpt/huberman-audio/mp3/tmp0sidlj08.mp4):
  Input stream #0:0 (audio): 439368 packets read (163233680 bytes); 439368 frames decoded (449912832 samples); 
  Total: 439368 packets (163233680 bytes) demuxed
Output file #0 (../huberman-audio/mp3/DTCmprPCDqc.mp3):
  Output stream #0:0 (audio): 390550 frames encoded (449912832 samples); 390551 packets muxed (163234377 bytes); 
  Total: 390551 packets (163234377 bytes) muxed
[AVIOContext @ 0x5623164697c0] Statistics: 2 seeks, 624 writeouts
[AVIOContext @ 0x562316440880] Statistics: 165110368 bytes read, 0 seeks
